# xmcd
#
# Track frame offsets: 
#        150
#        14224
#        30673
#        63858
#        81418
#        98617
#        124511
#        205317
#        210431
#        215170
#        232633
#        247383
#        261901
#        281577
#        302302
#        328568
#        344446
#
# Disc length: 4787 seconds
#
# Revision: 1
# Processed by: cddbd v1.5.2PL0 Copyright (c) Steve Scherf et al.
# Submitted via: ExactAudioCopy v0.99pb5
#
DISCID=f612b111
DTITLE=Charles Wright and The Watts 103rd Street Rhythm Band - Express Y
DTITLE=ourself
DYEAR=1970
DGENRE=R&B
TTITLE0=Road Without An End
TTITLE1=I Got Love
TTITLE2=High As Apple Pie - Slice I [Long Version]
TTITLE3=Express Yourself
TTITLE4=I'm Aware
TTITLE5=Thell Me What You Want Me To Do
TTITLE6=High As Apple Pie - Slice II [Long Version]
TTITLE7=Radio Spot A
TTITLE8=Radio Spot B
TTITLE9=Express Yourself MONO
TTITLE10=Living On Borrowed Time
TTITLE11=Solution For Pollution
TTITLE12=High As Apple Pie [Single Version]
TTITLE13=Everthing's Gonna Be Alright
TTITLE14=Jam #4
TTITLE15=Love Land [1970 Version]
TTITLE16=Road Without An End [Alternate Version]
EXTD=
EXTT0=
EXTT1=
EXTT2=
EXTT3=
EXTT4=
EXTT5=
EXTT6=
EXTT7=
EXTT8=
EXTT9=
EXTT10=
EXTT11=
EXTT12=
EXTT13=
EXTT14=
EXTT15=
EXTT16=
PLAYORDER=
